<svg xmlns="http://www.w3.org/2000/svg" viewBox="0 0 239 86.25"><defs><style>.cls-1{fill:#048dc2;}.cls-2{fill:#131e42;}.cls-3{fill:#00bef1;}.cls-4{fill:#0870a0;}.cls-5{fill:#005f8f;}.cls-6{fill:#009ed2;}.cls-7{fill:#00afe6;}.cls-8{fill:#fff;}.cls-9{fill:#6959a5;}.cls-10{fill:#ed2a69;}</style></defs><title>logo-fot</title><g id="Warstwa_2" data-name="Warstwa 2"><g id="Warstwa_1-2" data-name="Warstwa 1"><polygon class="cls-1" points="69.24 63.85 59.43 63.85 64.86 31.49 73.97 37.1 69.24 63.85 69.24 63.85"/><polygon class="cls-2" points="59.43 63.85 56.49 57.34 52.96 49.47 64.86 31.49 59.43 63.85 59.43 63.85"/><polygon class="cls-3" points="52.96 49.47 40.8 49.47 49.43 21.89 64.92 31.34 52.96 49.47 52.96 49.47"/><polygon class="cls-4" points="36.29 63.85 26.09 63.85 30.99 38.83 49.43 21.89 36.29 63.85 36.29 63.85"/><polygon class="cls-2" points="26.09 63.85 21.58 42.77 20.01 35.67 30.99 38.83 26.09 63.85 26.09 63.85"/><polygon class="cls-5" points="49.43 21.89 42.22 4.29 68.56 14.06 82.04 42.17 49.43 21.89 49.43 21.89"/><polygon class="cls-6" points="30.99 38.83 17 5.27 40.44 0 49.43 21.89 30.99 38.83 30.99 38.83"/><polygon class="cls-5" points="0 29.96 5.69 18.54 17 5.27 30.99 38.83 0 29.96 0 29.96"/><polygon class="cls-7" points="9.22 56.36 3.92 53.8 0 29.96 12.36 33.51 9.22 56.36 9.22 56.36"/><polygon class="cls-2" points="1.96 59.91 0 56.76 3.92 53.8 9.22 56.36 1.96 59.91 1.96 59.91"/><path class="cls-8" d="M102.24,53.53h-7l3.6-21.39a5.91,5.91,0,0,1,.5-1.57,3.46,3.46,0,0,1,1.28-1.36,3.65,3.65,0,0,1,1.42-.57,9,9,0,0,1,1.37-.11h8.78c.31,0,.68,0,1.12.05a7.42,7.42,0,0,1,1.37.25,6.3,6.3,0,0,1,1.42.59,4.1,4.1,0,0,1,1.23,1.07,4.81,4.81,0,0,1,.85,1.66,7.94,7.94,0,0,1,.29,1.86,12.38,12.38,0,0,1-.06,1.84c-.06.6-.13,1.12-.21,1.57s-.17.92-.3,1.55-.3,1.29-.51,2a14.93,14.93,0,0,1-.81,2.07,8.34,8.34,0,0,1-1.16,1.82,6.51,6.51,0,0,1-1.71,1.44,7.7,7.7,0,0,1-1.84.77,10.1,10.1,0,0,1-1.8.32q-.87.07-1.62.07h-5.18Zm4.94-11.14a3.07,3.07,0,0,0,1.83-.5,3.6,3.6,0,0,0,1.6-2.27q.19-.73.35-1.66t.2-1.5a4.3,4.3,0,0,0-.06-1.25,1.8,1.8,0,0,0-.42-.89,2.13,2.13,0,0,0-1.33-.68l-.48,0h-2.46a.92.92,0,0,0-.32.09,1.14,1.14,0,0,0-.3.16,1.05,1.05,0,0,0-.36.64l-1.33,7.89Z"/><path class="cls-8" d="M122.53,22.46h7l-1,6.07h4.18l1.6,0a12.6,12.6,0,0,1,1.62.14,7.53,7.53,0,0,1,1.54.41,5.22,5.22,0,0,1,1.4.82,4.72,4.72,0,0,1,1.57,2.37,6.27,6.27,0,0,1,.17,2.8L138.5,47.46h-7l1.62-9.64a9,9,0,0,0,.1-1.57,2.72,2.72,0,0,0-.63-1.68,2.29,2.29,0,0,0-1.26-.91,5.67,5.67,0,0,0-1.45-.2h-2.21l-2.35,14h-7Z"/><path class="cls-8" d="M146.59,53.53h-7l3.6-21.39a6,6,0,0,1,.5-1.57A3.47,3.47,0,0,1,145,29.21a3.66,3.66,0,0,1,1.42-.57,9,9,0,0,1,1.37-.11h8.79c.31,0,.68,0,1.11.05a7.43,7.43,0,0,1,1.37.25,6.27,6.27,0,0,1,1.42.59,4.11,4.11,0,0,1,1.23,1.07,4.78,4.78,0,0,1,.85,1.66,8,8,0,0,1,.3,1.86,12.52,12.52,0,0,1-.06,1.84c-.06.6-.13,1.12-.21,1.57s-.17.92-.3,1.55-.3,1.29-.51,2a14.79,14.79,0,0,1-.81,2.07,8.34,8.34,0,0,1-1.16,1.82,6.5,6.5,0,0,1-1.71,1.44,7.67,7.67,0,0,1-1.84.77,10.09,10.09,0,0,1-1.8.32q-.87.07-1.62.07h-5.18Zm4.94-11.14a3.06,3.06,0,0,0,1.83-.5,4.37,4.37,0,0,0,1-1,4.31,4.31,0,0,0,.58-1.3q.19-.73.35-1.66t.2-1.5a4.27,4.27,0,0,0-.06-1.25,1.8,1.8,0,0,0-.42-.89,2.13,2.13,0,0,0-.65-.48,2.16,2.16,0,0,0-.68-.2l-.48,0h-2.46a.93.93,0,0,0-.32.09,1.14,1.14,0,0,0-.29.16,1.05,1.05,0,0,0-.36.64l-1.33,7.89Z"/><path class="cls-8" d="M170.28,47.46q-1.07,0-2,0a7.62,7.62,0,0,1-1.78-.27,4.12,4.12,0,0,1-1.45-.73A3.73,3.73,0,0,1,164,45a6,6,0,0,1-.35-2.63,39.87,39.87,0,0,1,.52-4.16l.41-2.46a19.17,19.17,0,0,1,.49-2.2,9.48,9.48,0,0,1,.76-1.87,5.23,5.23,0,0,1,1.22-1.5,5.37,5.37,0,0,1,1.8-1.06,11.89,11.89,0,0,1,2.25-.55,21.75,21.75,0,0,1,2.52-.21q1.31,0,2.66,0,2.89,0,4.76.18a4.7,4.7,0,0,1,2.85,1.11,3.21,3.21,0,0,1,.87,1.32,6.49,6.49,0,0,1,.35,1.64,9.22,9.22,0,0,1,0,1.73q-.09.88-.23,1.66a12.16,12.16,0,0,1-.48,1.88,3.14,3.14,0,0,1-1.25,1.59,2.28,2.28,0,0,1-1,.46,6.14,6.14,0,0,1-1,.07H170.86a2.82,2.82,0,0,0-.08.82,1.91,1.91,0,0,0,.15.71,1.4,1.4,0,0,0,1.2.8,17.1,17.1,0,0,0,1.79.09h9.18l-.85,5.07Zm6.5-11.93a1.17,1.17,0,0,0,1-.36,1.64,1.64,0,0,0,.3-.64,1.15,1.15,0,0,0-.12-.75,1.38,1.38,0,0,0-.95-.54,9.53,9.53,0,0,0-1-.11l-.85,0c-.4,0-.85,0-1.33.05a3.1,3.1,0,0,0-1.15.27,1.63,1.63,0,0,0-.82.84,3.91,3.91,0,0,0-.28,1.27Z"/><path class="cls-8" d="M186.49,36.49c.08-.45.18-.95.3-1.48a9.29,9.29,0,0,1,.56-1.64,8.76,8.76,0,0,1,1-1.62,6.57,6.57,0,0,1,1.47-1.43,7.69,7.69,0,0,1,1.88-1,12,12,0,0,1,2-.53,13.39,13.39,0,0,1,1.86-.22q.88,0,1.6,0h4.64l-.83,4.93h-2.43a8.35,8.35,0,0,0-2,.23,3.59,3.59,0,0,0-1.78,1.12,5,5,0,0,0-1.07,1.8,12.24,12.24,0,0,0-.46,1.8l-1.52,9h-7Z"/><path class="cls-8" d="M201,42.39H211.3a.88.88,0,0,0,.45-.14.47.47,0,0,0,.24-.36.29.29,0,0,0-.06-.27l-.19-.16a2.39,2.39,0,0,0-.57-.23q-.41-.12-1.45-.52l-3.85-1.32a10.78,10.78,0,0,1-2.15-1,3.28,3.28,0,0,1-1.32-1.48,4.2,4.2,0,0,1-.29-1.57,9,9,0,0,1,.11-1.61,8.85,8.85,0,0,1,.49-1.77,5.88,5.88,0,0,1,1-1.62,4.23,4.23,0,0,1,2.07-1.46,9.64,9.64,0,0,1,2.62-.32H221l-.82,4.85H209.92l-.39,0a1.16,1.16,0,0,0-.44.06,1,1,0,0,0-.25.09.31.31,0,0,0-.13.23c0,.14,0,.24.06.29a1.28,1.28,0,0,0,.26.14l.44.16.23.11.23.11.44.16,4.51,1.61a17.44,17.44,0,0,1,2.41,1,3.53,3.53,0,0,1,1.51,1.54,3.92,3.92,0,0,1,.49,2,12.53,12.53,0,0,1-.13,1.64,9,9,0,0,1-.66,2.14,4.6,4.6,0,0,1-1.59,1.89,4.07,4.07,0,0,1-1.7.75,9.18,9.18,0,0,1-1.56.14H200.13Z"/><polygon class="cls-9" points="219.9 68.97 166.58 72.56 166.31 55.94 219.63 52.15 219.9 68.97"/><polygon class="cls-10" points="239 82.67 185.68 86.25 185.41 69.64 238.72 65.84 239 82.67"/><path class="cls-8" d="M175.46,61.47a3.64,3.64,0,0,0-1.09-.13,1.28,1.28,0,0,0-.67.2.51.51,0,0,0-.22.48.65.65,0,0,0,.4.56,5.59,5.59,0,0,0,1.14.34,9.64,9.64,0,0,1,1.27.35,2.2,2.2,0,0,1,.88.6,1.83,1.83,0,0,1,.43,1.13,2,2,0,0,1-.29,1.23,2.29,2.29,0,0,1-1,.84,3.92,3.92,0,0,1-1.45.36,5,5,0,0,1-1.76-.19,4.72,4.72,0,0,1-1.54-.75l.56-1.39a4.45,4.45,0,0,0,1.33.71,3.43,3.43,0,0,0,1.34.21,1.45,1.45,0,0,0,.79-.24.66.66,0,0,0,0-1,1.48,1.48,0,0,0-.51-.26q-.31-.09-.84-.2A9.35,9.35,0,0,1,173,64a2.17,2.17,0,0,1-.86-.58,1.77,1.77,0,0,1-.42-1.11,1.94,1.94,0,0,1,.27-1.18,2.26,2.26,0,0,1,.94-.83,3.83,3.83,0,0,1,1.46-.37,5.14,5.14,0,0,1,1.5.12,5,5,0,0,1,1.34.49l-.54,1.41A5.55,5.55,0,0,0,175.46,61.47Z"/><path class="cls-8" d="M180.75,65.16a1.58,1.58,0,0,0,1.22.37,1.52,1.52,0,0,0,1.12-.53,1.73,1.73,0,0,0,.34-1.27l-.3-4.29,1.65-.12.3,4.29a3.38,3.38,0,0,1-.27,1.69,2.67,2.67,0,0,1-1,1.16,3.68,3.68,0,0,1-1.7.5,3.74,3.74,0,0,1-1.76-.26,2.69,2.69,0,0,1-1.21-1,3.35,3.35,0,0,1-.51-1.64l-.3-4.29,1.65-.12.3,4.29A1.7,1.7,0,0,0,180.75,65.16Z"/><path class="cls-8" d="M186.25,59.22l1.84-.13,2.59,4.33,1.94-4.65,1.83-.13L195,66l-1.48.1-.35-4.94-1.78,4.34-1.06.07-2.38-4,.35,4.94-1.48.1Z"/><path class="cls-8" d="M196.06,58.53l1.84-.13,2.59,4.33,1.94-4.65,1.83-.13.51,7.31-1.48.1-.35-4.94-1.78,4.34-1.06.07-2.38-4,.35,4.94-1.48.1Z"/><path class="cls-8" d="M205.87,57.85l1.65-.12L208,65l-1.65.12Z"/><path class="cls-8" d="M208.42,57.67l6.11-.43.1,1.4-2.23.16.41,5.91-1.65.12-.41-5.91-2.22.16Z"/><path class="cls-8" d="M206.56,78.75l.1,1.38-5.49.38-.08-1.14,2.51-3a3.94,3.94,0,0,0,.53-.76,1.23,1.23,0,0,0,.17-.63.63.63,0,0,0-.3-.52,1.24,1.24,0,0,0-.75-.14,2.46,2.46,0,0,0-1,.31,4.37,4.37,0,0,0-1,.74l-.73-1.19a4.87,4.87,0,0,1,2.85-1.28,3.36,3.36,0,0,1,1.31.14,2,2,0,0,1,.92.6,1.62,1.62,0,0,1,.38,1,2.2,2.2,0,0,1-.28,1.17,7.7,7.7,0,0,1-.94,1.36L203.2,79Z"/><path class="cls-8" d="M212.6,73.27a5,5,0,0,1,.39,5.51,3.39,3.39,0,0,1-4.73.33,5,5,0,0,1-.39-5.51,3.4,3.4,0,0,1,4.73-.33Zm-3.44,1.13a5,5,0,0,0,.26,3.73,1.26,1.26,0,0,0,1.19.51,1.24,1.24,0,0,0,1.09-.67,5,5,0,0,0-.26-3.73,1.24,1.24,0,0,0-1.17-.51A1.26,1.26,0,0,0,209.16,74.4Z"/><path class="cls-8" d="M213.77,72.29l3.12-.22.51,7.31-1.65.12-.41-5.91-1.47.1Z"/><path class="cls-8" d="M218.06,72l5.73-.4.08,1.18-2.45,6.33-1.74.12L222,73.09l-2.41.17.06,1-1.46.1Z"/></g></g></svg>