<svg xmlns="http://www.w3.org/2000/svg" viewBox="0 0 247 89.14"><defs><style>.cls-1{fill:#048dc2;}.cls-2{fill:#131e42;}.cls-3{fill:#00bef1;}.cls-4{fill:#0870a0;}.cls-5{fill:#005f8f;}.cls-6{fill:#009ed2;}.cls-7{fill:#00afe6;}.cls-8{fill:#121617;}.cls-9{fill:#6959a5;}.cls-10{fill:#ed2a69;}.cls-11{fill:#fff;}</style></defs><title>logo</title><g id="Warstwa_2" data-name="Warstwa 2"><g id="Warstwa_1-2" data-name="Warstwa 1"><polygon class="cls-1" points="71.56 65.98 61.42 65.98 67.03 32.55 76.45 38.34 71.56 65.98 71.56 65.98"/><polygon class="cls-2" points="61.42 65.98 58.38 59.27 54.73 51.12 67.03 32.55 61.42 65.98 61.42 65.98"/><polygon class="cls-3" points="54.73 51.12 42.16 51.12 51.08 22.62 67.1 32.39 54.73 51.12 54.73 51.12"/><polygon class="cls-4" points="37.5 65.98 26.96 65.98 32.03 40.13 51.08 22.62 37.5 65.98 37.5 65.98"/><polygon class="cls-2" points="26.96 65.98 22.3 44.2 20.68 36.87 32.03 40.13 26.96 65.98 26.96 65.98"/><polygon class="cls-5" points="51.08 22.62 43.63 4.44 70.86 14.53 84.79 43.59 51.08 22.62 51.08 22.62"/><polygon class="cls-6" points="32.03 40.13 17.56 5.45 41.79 0 51.08 22.62 32.03 40.13 32.03 40.13"/><polygon class="cls-5" points="0 30.96 5.88 19.16 17.56 5.45 32.03 40.13 0 30.96 0 30.96"/><polygon class="cls-7" points="9.53 58.25 4.05 55.6 0 30.96 12.77 34.63 9.53 58.25 9.53 58.25"/><polygon class="cls-2" points="2.03 61.91 0 58.66 4.05 55.6 9.53 58.25 2.03 61.91 2.03 61.91"/><path class="cls-8" d="M105.66,55.32H98.43l3.72-22.11a6.11,6.11,0,0,1,.51-1.62,3.57,3.57,0,0,1,1.32-1.4,3.77,3.77,0,0,1,1.47-.59,9.31,9.31,0,0,1,1.42-.11h9.08c.32,0,.7,0,1.15.05a7.66,7.66,0,0,1,1.41.26,6.51,6.51,0,0,1,1.47.61,4.24,4.24,0,0,1,1.27,1.1,5,5,0,0,1,.87,1.72,8.2,8.2,0,0,1,.3,1.92,12.79,12.79,0,0,1-.06,1.9c-.07.62-.14,1.16-.22,1.62s-.17,1-.31,1.6-.31,1.34-.53,2a15.43,15.43,0,0,1-.84,2.14,8.62,8.62,0,0,1-1.2,1.88,6.73,6.73,0,0,1-1.76,1.49,8,8,0,0,1-1.9.79,10.44,10.44,0,0,1-1.86.33q-.9.08-1.67.07h-5.35Zm5.11-11.51a3.17,3.17,0,0,0,1.9-.52,3.72,3.72,0,0,0,1.65-2.34q.2-.76.36-1.71t.21-1.55a4.44,4.44,0,0,0-.06-1.29,1.86,1.86,0,0,0-.43-.92,2.21,2.21,0,0,0-1.38-.7l-.49,0H110a1,1,0,0,0-.33.09,1.18,1.18,0,0,0-.31.17,1.09,1.09,0,0,0-.37.66L107.6,43.8Z"/><path class="cls-8" d="M126.63,23.21h7.23l-1.05,6.28h4.32l1.66,0a13,13,0,0,1,1.67.15,7.78,7.78,0,0,1,1.59.42,5.39,5.39,0,0,1,1.44.85,4.88,4.88,0,0,1,1.62,2.45,6.49,6.49,0,0,1,.18,2.9L143.13,49H135.9l1.68-10a9.32,9.32,0,0,0,.11-1.62,2.81,2.81,0,0,0-.65-1.73,2.37,2.37,0,0,0-1.3-.94,5.86,5.86,0,0,0-1.5-.2h-2.29L129.52,49h-7.23Z"/><path class="cls-8" d="M151.5,55.32h-7.23L148,33.21a6.15,6.15,0,0,1,.51-1.62,3.59,3.59,0,0,1,1.32-1.4,3.78,3.78,0,0,1,1.46-.59,9.31,9.31,0,0,1,1.42-.11h9.08c.32,0,.7,0,1.15.05a7.68,7.68,0,0,1,1.41.26,6.48,6.48,0,0,1,1.47.61,4.24,4.24,0,0,1,1.27,1.1,4.94,4.94,0,0,1,.87,1.72,8.23,8.23,0,0,1,.31,1.92,12.94,12.94,0,0,1-.06,1.9c-.07.62-.14,1.16-.22,1.62s-.17,1-.31,1.6-.31,1.34-.53,2a15.29,15.29,0,0,1-.84,2.14,8.62,8.62,0,0,1-1.2,1.88,6.71,6.71,0,0,1-1.76,1.49,7.93,7.93,0,0,1-1.9.79,10.43,10.43,0,0,1-1.86.33q-.9.08-1.67.07h-5.35ZM156.6,43.8a3.16,3.16,0,0,0,1.89-.52,4.51,4.51,0,0,0,1.05-1,4.46,4.46,0,0,0,.6-1.35q.2-.76.36-1.71t.21-1.55a4.41,4.41,0,0,0-.06-1.29,1.87,1.87,0,0,0-.43-.92,2.21,2.21,0,0,0-.67-.5,2.24,2.24,0,0,0-.7-.2l-.49,0h-2.55a1,1,0,0,0-.33.09,1.17,1.17,0,0,0-.3.17,1.09,1.09,0,0,0-.37.66l-1.37,8.15Z"/><path class="cls-8" d="M176,49q-1.11,0-2.1,0a7.88,7.88,0,0,1-1.84-.28,4.25,4.25,0,0,1-1.5-.76,3.85,3.85,0,0,1-1.08-1.48,6.18,6.18,0,0,1-.36-2.71,41.2,41.2,0,0,1,.54-4.3l.43-2.55a19.81,19.81,0,0,1,.51-2.27,9.79,9.79,0,0,1,.79-1.94,5.4,5.4,0,0,1,1.26-1.55,5.55,5.55,0,0,1,1.86-1.09,12.29,12.29,0,0,1,2.33-.57,22.47,22.47,0,0,1,2.6-.22q1.35,0,2.75,0,3,0,4.92.18A4.86,4.86,0,0,1,190,30.59a3.32,3.32,0,0,1,.9,1.37,6.71,6.71,0,0,1,.36,1.7,9.52,9.52,0,0,1,0,1.79q-.1.9-.23,1.71a12.56,12.56,0,0,1-.49,1.94,3.25,3.25,0,0,1-1.29,1.64,2.36,2.36,0,0,1-1,.48,6.34,6.34,0,0,1-1,.07H176.58a2.92,2.92,0,0,0-.09.85,2,2,0,0,0,.15.74,1.44,1.44,0,0,0,1.24.83,17.67,17.67,0,0,0,1.85.09h9.48L188.34,49Zm6.72-12.33a1.21,1.21,0,0,0,1-.37,1.7,1.7,0,0,0,.31-.66,1.19,1.19,0,0,0-.13-.78,1.42,1.42,0,0,0-1-.55,9.85,9.85,0,0,0-1-.11l-.88,0c-.42,0-.88,0-1.38.06a3.21,3.21,0,0,0-1.19.28,1.68,1.68,0,0,0-.85.86,4,4,0,0,0-.29,1.31Z"/><path class="cls-8" d="M192.74,37.72c.08-.47.18-1,.31-1.53a9.6,9.6,0,0,1,.58-1.7,9,9,0,0,1,1-1.68,6.79,6.79,0,0,1,1.52-1.48,8,8,0,0,1,1.95-1,12.42,12.42,0,0,1,2-.55,13.84,13.84,0,0,1,1.92-.22q.91,0,1.65,0h4.8l-.86,5.09h-2.51a8.63,8.63,0,0,0-2.05.24A3.71,3.71,0,0,0,201.22,36a5.17,5.17,0,0,0-1.11,1.86,12.65,12.65,0,0,0-.48,1.86L198.06,49h-7.23Z"/><path class="cls-8" d="M207.71,43.8h10.66a.91.91,0,0,0,.47-.15.48.48,0,0,0,.25-.37A.3.3,0,0,0,219,43l-.19-.16a2.47,2.47,0,0,0-.59-.24q-.42-.13-1.5-.54l-4-1.36a11.14,11.14,0,0,1-2.22-1.05,3.39,3.39,0,0,1-1.37-1.53,4.34,4.34,0,0,1-.3-1.62,9.31,9.31,0,0,1,.11-1.66,9.14,9.14,0,0,1,.51-1.83,6.07,6.07,0,0,1,1-1.68,4.37,4.37,0,0,1,2.14-1.51,10,10,0,0,1,2.71-.33h13.06l-.84,5H216.95l-.4,0a1.2,1.2,0,0,0-.45.06,1.06,1.06,0,0,0-.26.09.32.32,0,0,0-.13.24c0,.15,0,.25.06.3a1.32,1.32,0,0,0,.27.15l.45.16.24.11.24.11.45.16,4.67,1.66a18,18,0,0,1,2.5,1.07,3.65,3.65,0,0,1,1.56,1.59,4,4,0,0,1,.5,2.07,13,13,0,0,1-.14,1.7,9.32,9.32,0,0,1-.69,2.21,4.76,4.76,0,0,1-1.64,2,4.2,4.2,0,0,1-1.75.77,9.49,9.49,0,0,1-1.61.15h-14Z"/><polygon class="cls-9" points="227.26 71.28 172.16 74.98 171.87 57.82 226.98 53.9 227.26 71.28"/><polygon class="cls-10" points="247 85.44 191.9 89.14 191.61 71.97 246.72 68.05 247 85.44"/><path class="cls-11" d="M181.34,63.53a3.77,3.77,0,0,0-1.13-.13,1.32,1.32,0,0,0-.69.21.53.53,0,0,0-.23.49.67.67,0,0,0,.41.58,5.78,5.78,0,0,0,1.18.36,10,10,0,0,1,1.31.36,2.27,2.27,0,0,1,.9.62,1.89,1.89,0,0,1,.44,1.17,2.06,2.06,0,0,1-.3,1.27,2.36,2.36,0,0,1-1,.87,4.05,4.05,0,0,1-1.5.38,5.21,5.21,0,0,1-1.82-.2,4.87,4.87,0,0,1-1.59-.78l.58-1.44a4.6,4.6,0,0,0,1.37.74,3.54,3.54,0,0,0,1.38.22,1.5,1.5,0,0,0,.81-.25.68.68,0,0,0,0-1,1.53,1.53,0,0,0-.53-.27q-.32-.1-.87-.21a9.66,9.66,0,0,1-1.3-.34,2.24,2.24,0,0,1-.89-.6,1.82,1.82,0,0,1-.44-1.15,2,2,0,0,1,.28-1.22,2.33,2.33,0,0,1,1-.86,4,4,0,0,1,1.51-.38,5.32,5.32,0,0,1,1.55.12,5.2,5.2,0,0,1,1.38.51L182.61,64A5.74,5.74,0,0,0,181.34,63.53Z"/><path class="cls-11" d="M186.8,67.34a1.64,1.64,0,0,0,1.26.38,1.57,1.57,0,0,0,1.15-.55,1.79,1.79,0,0,0,.35-1.31l-.31-4.43,1.7-.12.31,4.43a3.49,3.49,0,0,1-.28,1.75,2.76,2.76,0,0,1-1.08,1.2,3.81,3.81,0,0,1-1.75.52,3.87,3.87,0,0,1-1.82-.27,2.77,2.77,0,0,1-1.25-1,3.46,3.46,0,0,1-.53-1.69l-.31-4.43,1.7-.12.31,4.43A1.75,1.75,0,0,0,186.8,67.34Z"/><path class="cls-11" d="M192.48,61.2l1.9-.13,2.68,4.47,2-4.8,1.89-.13.53,7.55-1.53.11-.36-5.1-1.84,4.49-1.1.08-2.46-4.19.36,5.1-1.53.11Z"/><path class="cls-11" d="M202.63,60.49l1.9-.13,2.68,4.47,2-4.8,1.89-.13.53,7.55-1.53.11-.36-5.1-1.84,4.49-1.1.08-2.46-4.19.36,5.1-1.53.11Z"/><path class="cls-11" d="M212.77,59.78l1.7-.12.53,7.55-1.7.12Z"/><path class="cls-11" d="M215.4,59.6l6.31-.44.1,1.45-2.31.16.43,6.11-1.7.12-.43-6.11-2.3.16Z"/><path class="cls-11" d="M213.47,81.38l.1,1.42-5.67.4L207.81,82,210.4,79a4.07,4.07,0,0,0,.55-.78,1.27,1.27,0,0,0,.18-.65.65.65,0,0,0-.31-.54,1.28,1.28,0,0,0-.77-.15,2.54,2.54,0,0,0-1,.32,4.52,4.52,0,0,0-1,.77l-.76-1.23a5,5,0,0,1,2.94-1.32,3.47,3.47,0,0,1,1.35.15,2.12,2.12,0,0,1,1,.62,1.67,1.67,0,0,1,.39,1,2.28,2.28,0,0,1-.29,1.21,8,8,0,0,1-1,1.4L210,81.63Z"/><path class="cls-11" d="M219.72,75.72a5.19,5.19,0,0,1,.4,5.69,3.5,3.5,0,0,1-4.89.34,5.16,5.16,0,0,1-.4-5.69,3.52,3.52,0,0,1,4.89-.34Zm-3.56,1.17a5.12,5.12,0,0,0,.27,3.86,1.3,1.3,0,0,0,1.23.53,1.28,1.28,0,0,0,1.12-.69,5.13,5.13,0,0,0-.27-3.86,1.28,1.28,0,0,0-1.21-.52A1.3,1.3,0,0,0,216.16,76.89Z"/><path class="cls-11" d="M220.93,74.71l3.23-.23.53,7.55-1.7.12L222.55,76l-1.52.11Z"/><path class="cls-11" d="M225.36,74.4l5.92-.41.09,1.22-2.53,6.54-1.8.13,2.44-6.33-2.49.17.06,1.06-1.51.11Z"/></g></g></svg>