<svg xmlns="http://www.w3.org/2000/svg" viewBox="0 0 301 314.24"><defs><style>.cls-1{fill:#008fc1;}.cls-2{fill:#161e43;}.cls-3{fill:#00c0f2;}.cls-4{fill:#006fa1;}.cls-5{fill:#005f90;}.cls-6{fill:#00a0d4;}.cls-7{fill:#00b2e7;}.cls-8{fill:#231f20;}.cls-9{fill:#6959a5;}.cls-10{fill:#ed2a69;}.cls-11{fill:#fff;}</style></defs><title>phpers-logo</title><g id="Warstwa_2" data-name="Warstwa 2"><g id="Warstwa_1-2" data-name="Warstwa 1"><polygon class="cls-1" points="189.87 155.51 165.98 155.51 179.2 76.71 201.4 90.36 189.87 155.51 189.87 155.51"/><polygon class="cls-2" points="165.98 155.51 158.82 139.68 150.22 120.49 179.2 76.71 165.98 155.51 165.98 155.51"/><polygon class="cls-3" points="150.22 120.49 120.6 120.49 141.62 53.31 179.36 76.34 150.22 120.49 150.22 120.49"/><polygon class="cls-4" points="109.61 155.51 84.77 155.51 96.71 94.58 141.62 53.31 109.61 155.51 109.61 155.51"/><polygon class="cls-2" points="84.77 155.51 73.78 104.17 69.96 86.9 96.71 94.58 84.77 155.51 84.77 155.51"/><polygon class="cls-5" points="141.62 53.31 124.05 10.46 188.23 34.24 221.06 102.72 141.62 53.31 141.62 53.31"/><polygon class="cls-6" points="96.71 94.58 62.62 12.84 119.72 0 141.62 53.31 96.71 94.58 96.71 94.58"/><polygon class="cls-5" points="21.23 72.98 35.08 45.15 62.62 12.84 96.71 94.58 21.23 72.98 21.23 72.98"/><polygon class="cls-7" points="43.68 137.28 30.78 131.04 21.23 72.98 51.33 81.61 43.68 137.28 43.68 137.28"/><polygon class="cls-2" points="26 145.92 21.23 138.24 30.78 131.04 43.68 137.28 26 145.92 26 145.92"/><path class="cls-8" d="M13.16,240.89H0l6.76-40.23a11.06,11.06,0,0,1,.93-3,6.47,6.47,0,0,1,2.41-2.55,6.82,6.82,0,0,1,2.66-1.08,17.16,17.16,0,0,1,2.59-.2H31.87c.58,0,1.28,0,2.1.1a14.19,14.19,0,0,1,2.58.47,11.92,11.92,0,0,1,2.67,1.11,7.73,7.73,0,0,1,2.31,2,9.08,9.08,0,0,1,1.59,3.13,15,15,0,0,1,.55,3.49,23.1,23.1,0,0,1-.11,3.46q-.18,1.68-.4,3t-.56,2.92q-.36,1.78-1,3.73a29.08,29.08,0,0,1-1.53,3.9,15.89,15.89,0,0,1-2.19,3.42,12.43,12.43,0,0,1-3.21,2.72,14.87,14.87,0,0,1-3.46,1.44,19.56,19.56,0,0,1-3.39.61q-1.63.14-3,.14H15.08Zm9.3-21A5.74,5.74,0,0,0,25.9,219a8.29,8.29,0,0,0,1.92-1.81,8.28,8.28,0,0,0,1.08-2.45c.24-.92.46-2,.66-3.13s.3-2,.38-2.82a7.92,7.92,0,0,0-.11-2.35,3.38,3.38,0,0,0-.79-1.68,4,4,0,0,0-2.5-1.27c-.42,0-.72-.07-.9-.07H21a1.78,1.78,0,0,0-.6.17,2.29,2.29,0,0,0-.55.3,2,2,0,0,0-.67,1.21l-2.5,14.84Z"/><path class="cls-8" d="M51.46,182.47H64.63l-1.92,11.42h7.86c1,0,2,0,3,0a23.56,23.56,0,0,1,3,.27,14.18,14.18,0,0,1,2.89.77,9.82,9.82,0,0,1,2.63,1.54A8.92,8.92,0,0,1,85.08,201a11.7,11.7,0,0,1,.32,5.28L81.5,229.47H68.34l3.05-18.13a17.45,17.45,0,0,0,.19-3,5.11,5.11,0,0,0-1.18-3.16A4.28,4.28,0,0,0,68,203.52a10.59,10.59,0,0,0-2.72-.37H61.15l-4.43,26.32H43.56Z"/><path class="cls-8" d="M96.79,240.89H83.63l6.77-40.23a11.16,11.16,0,0,1,.93-3,6.49,6.49,0,0,1,2.41-2.55,6.83,6.83,0,0,1,2.66-1.08,17.25,17.25,0,0,1,2.59-.2h16.52c.58,0,1.28,0,2.1.1a14.21,14.21,0,0,1,2.57.47,11.92,11.92,0,0,1,2.67,1.11,7.73,7.73,0,0,1,2.31,2,9.08,9.08,0,0,1,1.59,3.13,14.89,14.89,0,0,1,.55,3.49,23.82,23.82,0,0,1-.11,3.46c-.12,1.12-.25,2.1-.4,3s-.31,1.73-.56,2.92-.56,2.43-1,3.73a28.75,28.75,0,0,1-1.53,3.9,15.79,15.79,0,0,1-2.19,3.42,12.37,12.37,0,0,1-3.21,2.72,14.93,14.93,0,0,1-3.47,1.44,19.62,19.62,0,0,1-3.39.61q-1.64.14-3,.14H98.71Zm9.3-21a5.76,5.76,0,0,0,3.45-.94,8.33,8.33,0,0,0,1.92-1.81,8.42,8.42,0,0,0,1.08-2.45q.36-1.38.66-3.13c.17-1,.3-2,.37-2.82a7.92,7.92,0,0,0-.11-2.35,3.38,3.38,0,0,0-.79-1.68,4,4,0,0,0-2.51-1.27c-.42,0-.71-.07-.9-.07h-4.63a1.78,1.78,0,0,0-.6.17,2.29,2.29,0,0,0-.55.3,2,2,0,0,0-.67,1.21l-2.49,14.84Z"/><path class="cls-8" d="M141.13,229.47c-1.34,0-2.62,0-3.82-.07a14,14,0,0,1-3.34-.5,7.67,7.67,0,0,1-2.72-1.37,7,7,0,0,1-2-2.69,11.19,11.19,0,0,1-.65-4.93,74.1,74.1,0,0,1,1-7.82q.41-2.42.78-4.64a36,36,0,0,1,.93-4.13,17.51,17.51,0,0,1,1.43-3.52A9.87,9.87,0,0,1,135,197a10.21,10.21,0,0,1,3.39-2,22.07,22.07,0,0,1,4.24-1,39.32,39.32,0,0,1,4.73-.4q2.46-.07,5-.07,5.44,0,8.94.34a8.84,8.84,0,0,1,5.36,2.08,6.09,6.09,0,0,1,1.63,2.48,12.21,12.21,0,0,1,.65,3.09,17.16,17.16,0,0,1,0,3.26q-.18,1.64-.43,3.12a22.52,22.52,0,0,1-.89,3.52,5.91,5.91,0,0,1-2.35,3,4.37,4.37,0,0,1-1.86.87,11.54,11.54,0,0,1-1.8.13H142.23a5.23,5.23,0,0,0-.16,1.54,3.52,3.52,0,0,0,.28,1.35,2.62,2.62,0,0,0,2.26,1.51,32.09,32.09,0,0,0,3.36.17h17.26l-1.6,9.54ZM153.36,207a2.2,2.2,0,0,0,1.89-.67,3,3,0,0,0,.57-1.21,2.17,2.17,0,0,0-.23-1.41,2.58,2.58,0,0,0-1.78-1,16.48,16.48,0,0,0-1.84-.2c-.71,0-1.25-.07-1.6-.07-.76,0-1.6,0-2.5.1a5.9,5.9,0,0,0-2.17.51,3,3,0,0,0-1.54,1.57,7.22,7.22,0,0,0-.54,2.38Z"/><path class="cls-8" d="M171.92,208.86q.21-1.28.57-2.79a17.36,17.36,0,0,1,1.06-3.09,16,16,0,0,1,1.79-3.05,12.23,12.23,0,0,1,2.77-2.69,14.4,14.4,0,0,1,3.54-1.88,23.63,23.63,0,0,1,3.69-1,25.35,25.35,0,0,1,3.49-.4q1.66-.07,3-.07h8.73L199,203.15h-4.57a15.67,15.67,0,0,0-3.73.44,6.81,6.81,0,0,0-3.34,2.11,9.35,9.35,0,0,0-2,3.39,23,23,0,0,0-.87,3.39l-2.86,17H168.45Z"/><path class="cls-8" d="M199.38,219.94h19.41a1.64,1.64,0,0,0,.85-.27.89.89,0,0,0,.45-.67.53.53,0,0,0-.12-.5,3.72,3.72,0,0,0-.35-.3,4.75,4.75,0,0,0-1.07-.44q-.76-.23-2.72-1l-7.24-2.48a20.11,20.11,0,0,1-4-1.92,6.17,6.17,0,0,1-2.49-2.78,8.05,8.05,0,0,1-.54-3,16.88,16.88,0,0,1,.21-3,16.36,16.36,0,0,1,.93-3.33,11.1,11.1,0,0,1,1.82-3.05,7.91,7.91,0,0,1,3.89-2.75,18,18,0,0,1,4.94-.61h23.77L235.53,203H216.19c-.23,0-.47,0-.73,0a2.11,2.11,0,0,0-.82.1,2.3,2.3,0,0,0-.46.16.58.58,0,0,0-.24.44c0,.27,0,.45.11.54a2.32,2.32,0,0,0,.5.27l.82.3a4.28,4.28,0,0,1,.44.2,3.27,3.27,0,0,0,.44.2l.82.3,8.49,3a32.69,32.69,0,0,1,4.54,1.95,6.65,6.65,0,0,1,2.84,2.88,7.39,7.39,0,0,1,.91,3.76,23.76,23.76,0,0,1-.25,3.09,17,17,0,0,1-1.25,4,8.67,8.67,0,0,1-3,3.56,7.63,7.63,0,0,1-3.19,1.41,17.38,17.38,0,0,1-2.93.27H197.78Z"/><polygon class="cls-9" points="258.07 275.4 138.21 283.45 137.59 246.11 257.45 237.58 258.07 275.4"/><polygon class="cls-10" points="301 306.19 181.14 314.24 180.53 276.89 300.38 268.37 301 306.19"/><path class="cls-11" d="M158.17,258.53a8.19,8.19,0,0,0-2.46-.29,2.87,2.87,0,0,0-1.5.46,1.15,1.15,0,0,0-.49,1.07,1.45,1.45,0,0,0,.9,1.27,12.57,12.57,0,0,0,2.57.77,21.67,21.67,0,0,1,2.85.79,4.94,4.94,0,0,1,2,1.35,4.11,4.11,0,0,1,1,2.55,4.47,4.47,0,0,1-.64,2.77,5.14,5.14,0,0,1-2.17,1.88,8.81,8.81,0,0,1-3.27.82,11.34,11.34,0,0,1-4-.43,10.6,10.6,0,0,1-3.47-1.69l1.27-3.13a10,10,0,0,0,3,1.61,7.71,7.71,0,0,0,3,.47,3.27,3.27,0,0,0,1.77-.55,1.48,1.48,0,0,0,.05-2.28,3.34,3.34,0,0,0-1.15-.59q-.69-.21-1.88-.46a21,21,0,0,1-2.82-.75,4.87,4.87,0,0,1-1.94-1.3,4,4,0,0,1-1-2.5,4.35,4.35,0,0,1,.62-2.65,5.07,5.07,0,0,1,2.11-1.87,8.61,8.61,0,0,1,3.29-.83,11.56,11.56,0,0,1,3.37.26,11.32,11.32,0,0,1,3,1.11l-1.22,3.17A12.49,12.49,0,0,0,158.17,258.53Z"/><path class="cls-11" d="M170,266.82a3.56,3.56,0,0,0,2.73.83,3.41,3.41,0,0,0,2.51-1.19,3.89,3.89,0,0,0,.77-2.86l-.67-9.64,3.71-.26.67,9.64a7.6,7.6,0,0,1-.62,3.8,6,6,0,0,1-2.35,2.62A8.28,8.28,0,0,1,173,270.9a8.42,8.42,0,0,1-4-.58,6,6,0,0,1-2.73-2.26,7.52,7.52,0,0,1-1.15-3.68l-.67-9.64,3.71-.26.67,9.64A3.81,3.81,0,0,0,170,266.82Z"/><path class="cls-11" d="M182.42,253.47l4.13-.29,5.82,9.73,4.36-10.44,4.11-.29L202,268.61l-3.33.23-.78-11.1-4,9.76-2.39.17-5.35-9.1.78,11.1-3.33.23Z"/><path class="cls-11" d="M204.48,251.93l4.13-.29,5.82,9.73,4.36-10.44,4.11-.29L224,267.07l-3.33.23-.78-11.1-4,9.76-2.39.17-5.35-9.1.78,11.1-3.33.23Z"/><path class="cls-11" d="M226.54,250.39l3.71-.26,1.15,16.42-3.71.26Z"/><path class="cls-11" d="M232.26,250,246,249l.22,3.14-5,.35.93,13.28-3.71.26-.93-13.28-5,.35Z"/><path class="cls-11" d="M228.07,297.37l.22,3.1-12.34.86-.18-2.56,5.64-6.69a8.86,8.86,0,0,0,1.19-1.7A2.77,2.77,0,0,0,223,289a1.42,1.42,0,0,0-.68-1.17,2.78,2.78,0,0,0-1.69-.32,5.53,5.53,0,0,0-2.22.7,9.83,9.83,0,0,0-2.22,1.66l-1.65-2.67a10.94,10.94,0,0,1,6.4-2.88,7.55,7.55,0,0,1,2.95.32A4.6,4.6,0,0,1,226,286a3.63,3.63,0,0,1,.86,2.17,5,5,0,0,1-.64,2.64,17.3,17.3,0,0,1-2.12,3l-3.51,4.07Z"/><path class="cls-11" d="M241.66,285.06a11.29,11.29,0,0,1,.87,12.38,7.62,7.62,0,0,1-10.64.74A11.22,11.22,0,0,1,231,285.8a7.65,7.65,0,0,1,10.64-.74Zm-7.74,2.54a11.14,11.14,0,0,0,.59,8.39,2.82,2.82,0,0,0,2.67,1.14,2.78,2.78,0,0,0,2.44-1.5,11.17,11.17,0,0,0-.59-8.39,2.79,2.79,0,0,0-2.63-1.14A2.83,2.83,0,0,0,233.92,287.6Z"/><path class="cls-11" d="M244.28,282.85l7-.49,1.15,16.42-3.71.26-.93-13.28-3.31.23Z"/><path class="cls-11" d="M253.93,282.17l12.88-.9.19,2.65-5.51,14.23-3.92.27,5.31-13.76-5.42.38.14,2.3-3.29.23Z"/></g></g></svg>